<svg width="417" height="417" viewBox="0 0 417 417" fill="none" xmlns="http://www.w3.org/2000/svg">
<g clip-path="url(#clip0_214_2075)">
<path d="M208.5 417C323.651 417 417 323.651 417 208.5C417 93.3486 323.651 0 208.5 0C93.3486 0 0 93.3486 0 208.5C0 323.651 93.3486 417 208.5 417Z" fill="#9873FF"/>
<path d="M143.963 242.544C143.963 250.949 141.031 257.351 135.166 261.749C129.352 266.147 120.629 268.346 108.998 268.346C103.036 268.346 97.9541 267.931 93.7516 267.1C89.549 266.318 85.6151 265.145 81.9502 263.582V245.109C86.1038 247.064 90.7708 248.701 95.9508 250.021C101.179 251.34 105.773 252 109.731 252C117.843 252 121.899 249.655 121.899 244.963C121.899 243.204 121.362 241.787 120.287 240.712C119.211 239.587 117.355 238.341 114.716 236.974C112.077 235.556 108.558 233.92 104.161 232.062C97.8565 229.423 93.2145 226.98 90.2329 224.732C87.3014 222.485 85.1514 219.918 83.7828 217.035C82.4634 214.104 81.8036 210.512 81.8036 206.26C81.8036 198.979 84.6134 193.36 90.2329 189.401C95.9016 185.394 103.916 183.391 114.275 183.391C124.147 183.391 133.749 185.541 143.083 189.841L136.34 205.967C132.235 204.208 128.398 202.766 124.831 201.642C121.264 200.519 117.623 199.957 113.909 199.957C107.312 199.957 104.014 201.74 104.014 205.307C104.014 207.311 105.065 209.045 107.166 210.512C109.316 211.978 113.983 214.152 121.166 217.035C127.568 219.626 132.259 222.044 135.24 224.293C138.22 226.54 140.42 229.13 141.837 232.062C143.254 234.995 143.963 238.488 143.963 242.544ZM182.885 222.313L192.635 209.852L215.577 184.93H240.793L208.247 220.48L242.772 266.88H216.97L193.367 233.675L183.765 241.371V266.88H161.408V152.824H183.765V203.695L182.593 222.313H182.885ZM300.093 183.391C309.769 183.391 317.344 187.178 322.816 194.752C328.29 202.278 331.026 212.613 331.026 225.758C331.026 239.295 328.192 249.776 322.524 257.204C316.903 264.632 309.231 268.346 299.507 268.346C289.88 268.346 282.33 264.852 276.857 257.864H275.318L271.58 266.88H254.5V152.824H276.857V179.359C276.857 182.731 276.564 188.13 275.977 195.558H276.857C282.085 187.447 289.832 183.391 300.093 183.391ZM292.91 201.276C287.388 201.276 283.356 202.986 280.815 206.407C278.274 209.779 276.955 215.374 276.857 223.193V225.612C276.857 234.407 278.152 240.712 280.742 244.523C283.381 248.335 287.535 250.241 293.203 250.241C297.796 250.241 301.438 248.139 304.125 243.937C306.861 239.686 308.23 233.528 308.23 225.465C308.23 217.402 306.861 211.367 304.125 207.36C301.388 203.304 297.65 201.276 292.91 201.276ZM346.346 256.398C346.346 252.293 347.446 249.19 349.644 247.089C351.844 244.988 355.045 243.937 359.247 243.937C363.303 243.937 366.43 245.012 368.63 247.162C370.877 249.313 372.001 252.391 372.001 256.398C372.001 260.259 370.877 263.313 368.63 265.561C366.382 267.76 363.254 268.859 359.247 268.859C355.142 268.859 351.965 267.784 349.718 265.634C347.47 263.435 346.346 260.356 346.346 256.398Z" fill="white"/>
</g>
<defs>
<clipPath id="clip0_214_2075">
<rect width="417" height="417" fill="white"/>
</clipPath>
</defs>
</svg>
