<svg width="258" height="271" viewBox="0 0 258 271" fill="none" xmlns="http://www.w3.org/2000/svg">
<path d="M5.82 207.037V28.363H1.455L4.365 1.29999H50.343C58.491 1.29999 65.087 3.82199 70.131 8.86599C75.175 13.716 77.697 20.215 77.697 28.363V89.473C77.697 92.189 77.309 94.808 76.533 97.33C81.189 102.374 83.517 108.776 83.517 116.536V179.974C83.517 188.122 80.413 194.718 74.205 199.762C68.191 204.612 61.11 207.037 52.962 207.037H5.82ZM48.597 28.363H33.465V89.473H48.597C49.567 89.473 50.052 88.988 50.052 88.018V29.818C50.052 28.848 49.567 28.363 48.597 28.363ZM54.417 116.536H33.465V179.974H54.417C55.387 179.974 55.872 179.489 55.872 178.519V117.991C55.872 117.021 55.387 116.536 54.417 116.536ZM170.712 179.101C170.712 187.249 168.19 193.845 163.146 198.889C158.102 203.739 151.506 206.164 143.358 206.164H122.406C114.258 206.164 107.662 203.739 102.618 198.889C97.5744 193.845 95.0524 187.249 95.0524 179.101V27.199C95.0524 19.051 97.5744 12.552 102.618 7.70199C107.662 2.65799 114.258 0.135984 122.406 0.135984H143.358C151.506 0.135984 158.102 2.65799 163.146 7.70199C168.19 12.552 170.712 19.051 170.712 27.199V179.101ZM124.152 27.199C123.182 27.199 122.697 27.684 122.697 28.654V177.646C122.697 178.616 123.182 179.101 124.152 179.101H141.612C142.582 179.101 143.067 178.616 143.067 177.646V28.654C143.067 27.684 142.582 27.199 141.612 27.199H124.152ZM179.386 28.363L182.296 1.29999H228.274C236.422 1.29999 243.018 3.82199 248.062 8.86599C253.106 13.716 255.628 20.215 255.628 28.363V119.446C255.628 127.594 252.524 134.19 246.316 139.234C240.302 144.084 233.221 146.509 225.073 146.509H211.396V205H183.751V28.363H179.386ZM226.528 28.363H211.396V119.446H226.528C227.498 119.446 227.983 118.961 227.983 117.991V29.818C227.983 28.848 227.498 28.363 226.528 28.363Z" fill="#2E76C1"/>
<path d="M1.28 270.448V231.152H0.32L0.96 225.2H11.072C12.864 225.2 14.3147 225.755 15.424 226.864C16.5333 227.931 17.088 229.36 17.088 231.152V244.592C17.088 245.189 17.0027 245.765 16.832 246.32C17.856 247.429 18.368 248.837 18.368 250.544V264.496C18.368 266.288 17.6853 267.739 16.32 268.848C14.9973 269.915 13.44 270.448 11.648 270.448H1.28ZM10.688 231.152H7.36V244.592H10.688C10.9013 244.592 11.008 244.485 11.008 244.272V231.472C11.008 231.259 10.9013 231.152 10.688 231.152ZM11.968 250.544H7.36V264.496H11.968C12.1813 264.496 12.288 264.389 12.288 264.176V250.864C12.288 250.651 12.1813 250.544 11.968 250.544ZM31.593 264.048V238H37.673V264.048H38.633L39.273 270H31.593V267.504L29.993 270H28.265C26.3023 270 24.7237 269.445 23.529 268.336C22.377 267.184 21.801 265.755 21.801 264.048V243.952H20.265L20.905 238H27.881V263.728C27.881 263.941 27.9877 264.048 28.201 264.048H31.593ZM46.6025 229.488L47.2425 235.44H41.1625V229.488H46.6025ZM47.2425 238V270H41.1625V243.952H40.2025L40.8425 238H47.2425ZM56.5 225.2L56.564 264.048H58.164L58.804 270H50.484L50.42 231.152H49.14L49.78 225.2H56.5ZM67.1815 270C65.2188 270 63.6402 269.445 62.4455 268.336C61.2935 267.184 60.7175 265.755 60.7175 264.048V243.952C60.7175 242.203 61.2935 240.773 62.4455 239.664C63.6402 238.555 65.2188 238 67.1815 238H67.4375C68.5895 238 69.6135 238.277 70.5095 238.832V231.152H68.9735L69.6135 225.2H76.5895V264.048H77.4855L78.1255 270H70.5095V267.504L68.9095 270H67.1815ZM67.1175 243.952C66.9042 243.952 66.7975 244.059 66.7975 244.272V263.728C66.7975 263.941 66.9042 264.048 67.1175 264.048H70.5095V243.952H67.1175ZM108.17 264.304C108.17 266.096 107.615 267.547 106.506 268.656C105.397 269.723 103.946 270.256 102.154 270.256H97.546C95.754 270.256 94.3033 269.723 93.194 268.656C92.0847 267.547 91.53 266.096 91.53 264.304V230.896C91.53 229.104 92.0847 227.675 93.194 226.608C94.3033 225.499 95.754 224.944 97.546 224.944H102.154C103.946 224.944 105.397 225.499 106.506 226.608C107.615 227.675 108.17 229.104 108.17 230.896V264.304ZM97.93 230.896C97.7167 230.896 97.61 231.003 97.61 231.216V263.984C97.61 264.197 97.7167 264.304 97.93 264.304H101.77C101.983 264.304 102.09 264.197 102.09 263.984V231.216C102.09 231.003 101.983 230.896 101.77 230.896H97.93ZM110.078 238H112.126V231.152C112.126 229.36 112.68 227.931 113.79 226.864C114.899 225.755 116.35 225.2 118.142 225.2H121.854V231.152H118.206V238H121.342L120.702 243.952H118.206V270H112.126V243.952H109.438L110.078 238ZM134.328 231.152L134.968 225.2H145.08C146.872 225.2 148.322 225.755 149.432 226.864C150.541 227.931 151.096 229.36 151.096 231.152V251.184C151.096 252.976 150.413 254.427 149.048 255.536C147.725 256.603 146.168 257.136 144.376 257.136H141.368V270H135.288V231.152H134.328ZM144.696 231.152H141.368V251.184H144.696C144.909 251.184 145.016 251.077 145.016 250.864V231.472C145.016 231.259 144.909 231.152 144.696 231.152ZM160.631 238V240.816L162.359 238H166.647V244.208H160.631V270H154.551V243.952H153.015L153.655 238H160.631ZM179.153 244.016C179.153 243.803 179.046 243.696 178.833 243.696H174.993C174.779 243.696 174.673 243.803 174.673 244.016V263.984C174.673 264.197 174.779 264.304 174.993 264.304H178.833C179.046 264.304 179.153 264.219 179.153 264.048V244.016ZM168.593 264.304V243.696C168.593 241.904 169.147 240.475 170.257 239.408C171.366 238.299 172.817 237.744 174.609 237.744H179.217C181.009 237.744 182.459 238.299 183.569 239.408C184.678 240.475 185.233 241.904 185.233 243.696V264.304C185.233 266.096 184.678 267.547 183.569 268.656C182.459 269.723 181.009 270.256 179.217 270.256H174.609C172.817 270.256 171.366 269.723 170.257 268.656C169.147 267.547 168.593 266.096 168.593 264.304ZM194.557 270C192.594 270 191.015 269.445 189.821 268.336C188.669 267.184 188.093 265.755 188.093 264.048V243.952C188.093 242.203 188.669 240.773 189.821 239.664C191.015 238.555 192.594 238 194.557 238H194.812C195.965 238 196.989 238.277 197.885 238.832V231.152H196.349L196.989 225.2H203.965V264.048H204.861L205.501 270H197.885V267.504L196.285 270H194.557ZM194.493 243.952C194.279 243.952 194.173 244.059 194.173 244.272V263.728C194.173 263.941 194.279 264.048 194.493 264.048H197.885V243.952H194.493ZM217.468 264.048V238H223.548V264.048H224.508L225.148 270H217.468V267.504L215.868 270H214.14C212.177 270 210.599 269.445 209.404 268.336C208.252 267.184 207.676 265.755 207.676 264.048V243.952H206.14L206.78 238H213.756V263.728C213.756 263.941 213.863 264.048 214.076 264.048H217.468ZM226.405 264.304V243.696C226.405 241.904 226.96 240.475 228.069 239.408C229.178 238.299 230.629 237.744 232.421 237.744H237.029C238.821 237.744 240.272 238.299 241.381 239.408C242.49 240.475 243.045 241.904 243.045 243.696V252.144L236.965 251.504V244.016C236.965 243.803 236.858 243.696 236.645 243.696H232.805C232.592 243.696 232.485 243.803 232.485 244.016V263.984C232.485 264.197 232.592 264.304 232.805 264.304H236.645C236.858 264.304 236.965 264.219 236.965 264.048V256.624H243.045V264.304C243.045 266.096 242.49 267.547 241.381 268.656C240.272 269.723 238.821 270.256 237.029 270.256H232.421C230.629 270.256 229.178 269.723 228.069 268.656C226.96 267.547 226.405 266.096 226.405 264.304ZM257.369 264.048V270H253.657C251.865 270 250.414 269.467 249.305 268.4C248.195 267.291 247.641 265.84 247.641 264.048V243.952H244.953L245.465 238H247.641V231.152H246.041L246.553 225.2H253.72V238H257.369L256.857 243.952H253.72V264.048H257.369Z" fill="#275789"/>
</svg>
