<svg width="450" height="110" viewBox="0 0 450 110" fill="none" xmlns="http://www.w3.org/2000/svg">
<path d="M7.25636 90.3657L0.753724 80.3163H5.45105L9.86793 87.5051L14.3199 80.3163H18.9821L12.462 90.3657L19.3152 100.861H14.6529L9.86793 93.1706L5.1005 100.861H0.438232L7.25636 90.3657Z" fill="white"/>
<path d="M19.7709 80.3163H24.2579L28.2015 91.9632C28.7974 93.6226 29.1947 95.183 29.3934 96.6442H29.5336C29.6387 95.9631 29.8315 95.1396 30.112 94.1737C30.3924 93.1954 31.8764 88.5763 34.5639 80.3163H39.0159L30.7254 103.591C29.2181 107.864 26.7058 110 23.1887 110C22.2773 110 21.3892 109.895 20.5245 109.684V106.229C21.1438 106.378 21.8508 106.452 22.6453 106.452C24.6318 106.452 26.0281 105.232 26.8344 102.793L27.553 100.861L19.7709 80.3163Z" fill="white"/>
<path d="M60.5569 108.124H56.7185V100.861H43.4328V108.124H39.6293V97.4801H41.2068C42.5856 95.3873 43.6781 92.861 44.4844 89.9013C45.3023 86.9292 45.7873 83.7342 45.9392 80.3163H57.7175V97.4801H60.5569V108.124ZM53.6687 97.4801V83.6599H49.4972C49.2752 86.211 48.8078 88.7249 48.095 91.2016C47.3939 93.6783 46.5351 95.7712 45.5185 97.4801H53.6687Z" fill="white"/>
<path d="M81.3443 90.5515C81.3443 93.9074 80.5322 96.5266 78.908 98.4089C77.2839 100.291 75.0228 101.232 72.125 101.232C70.3138 101.232 68.713 100.799 67.3225 99.9321C65.932 99.0652 64.8628 97.8207 64.115 96.1984C63.3672 94.5762 62.9932 92.6938 62.9932 90.5515C62.9932 87.2202 63.7995 84.6197 65.412 82.7497C67.0245 80.8798 69.2972 79.9448 72.2301 79.9448C75.0345 79.9448 77.2546 80.9046 78.8905 82.824C80.5264 84.7311 81.3443 87.3069 81.3443 90.5515ZM67.2349 90.5515C67.2349 95.2944 68.8883 97.6659 72.1951 97.6659C75.4669 97.6659 77.1027 95.2944 77.1027 90.5515C77.1027 85.858 75.4552 83.5113 72.16 83.5113C70.4307 83.5113 69.1745 84.1181 68.3917 85.3317C67.6205 86.5453 67.2349 88.2852 67.2349 90.5515Z" fill="white"/>
<path d="M95.6466 90.2914V80.3163H99.4851V90.2914L106.952 80.3163H111.299L103.674 90.2542L111.982 100.861H107.443L99.4851 90.44V100.861H95.6466V90.44L87.7068 100.861H83.1847L91.4751 90.2542L83.8683 80.3163H88.2151L95.6466 90.2914Z" fill="white"/>
<path d="M123.445 101.232C120.43 101.232 118.07 100.304 116.364 98.4461C114.67 96.5761 113.822 94.0065 113.822 90.7372C113.822 87.3812 114.611 84.7435 116.189 82.824C117.766 80.9046 119.934 79.9448 122.691 79.9448C125.25 79.9448 127.272 80.7683 128.756 82.4154C130.24 84.0624 130.982 86.3286 130.982 89.214V91.5731H118.064C118.123 93.5669 118.631 95.1025 119.589 96.1798C120.547 97.2448 121.897 97.7773 123.638 97.7773C124.783 97.7773 125.846 97.6659 126.828 97.443C127.821 97.2077 128.884 96.8238 130.018 96.2913V99.8392C129.013 100.347 127.996 100.706 126.968 100.917C125.94 101.127 124.765 101.232 123.445 101.232ZM122.691 83.2513C121.383 83.2513 120.331 83.6909 119.536 84.5701C118.753 85.4494 118.286 86.7311 118.134 88.4153H126.933C126.91 86.7187 126.524 85.437 125.776 84.5701C125.028 83.6909 124 83.2513 122.691 83.2513Z" fill="white"/>
<path d="M143.479 101.232C140.546 101.232 138.314 100.328 136.783 98.5204C135.264 96.7 134.505 94.0932 134.505 90.7001C134.505 87.245 135.299 84.5887 136.888 82.7312C138.489 80.8736 140.797 79.9448 143.812 79.9448C145.857 79.9448 147.697 80.3473 149.333 81.1522L148.088 84.663C146.347 83.9448 144.91 83.5856 143.777 83.5856C140.423 83.5856 138.746 85.9447 138.746 90.6629C138.746 92.9663 139.161 94.7 139.991 95.8641C140.832 97.0157 142.059 97.5916 143.671 97.5916C145.506 97.5916 147.241 97.1086 148.877 96.1427V99.9507C148.141 100.409 147.352 100.737 146.511 100.935C145.681 101.133 144.671 101.232 143.479 101.232Z" fill="white"/>
<path d="M167.999 80.3163V83.7342H161.69V100.861H157.553V83.7342H151.243V80.3163H167.999Z" fill="white"/>
<path d="M188.559 85.5732C188.559 88.0004 187.221 89.4679 184.545 89.9756V90.1242C186.041 90.31 187.186 90.8115 187.981 91.6288C188.775 92.4462 189.172 93.505 189.172 94.8052C189.172 96.7495 188.471 98.2479 187.069 99.3005C185.679 100.341 183.651 100.861 180.987 100.861H171.733V80.3163H180.952C186.023 80.3163 188.559 82.0686 188.559 85.5732ZM184.948 94.5452C184.948 93.5545 184.586 92.8548 183.862 92.4462C183.137 92.0251 182.05 91.8146 180.602 91.8146H175.852V97.6287H180.707C183.534 97.6287 184.948 96.6009 184.948 94.5452ZM184.44 85.9447C184.44 85.1274 184.136 84.5392 183.529 84.18C182.933 83.8085 182.039 83.6228 180.847 83.6228H175.852V88.5639H180.233C181.612 88.5639 182.658 88.3781 183.371 88.0066C184.084 87.6227 184.44 86.9354 184.44 85.9447Z" fill="white"/>
<path d="M201.897 101.232C198.883 101.232 196.522 100.304 194.816 98.4461C193.122 96.5761 192.275 94.0065 192.275 90.7372C192.275 87.3812 193.063 84.7435 194.641 82.824C196.218 80.9046 198.386 79.9448 201.144 79.9448C203.703 79.9448 205.724 80.7683 207.208 82.4154C208.692 84.0624 209.434 86.3286 209.434 89.214V91.5731H196.516C196.575 93.5669 197.083 95.1025 198.041 96.1798C198.999 97.2448 200.349 97.7773 202.09 97.7773C203.235 97.7773 204.299 97.6659 205.28 97.443C206.273 97.2077 207.337 96.8238 208.47 96.2913V99.8392C207.465 100.347 206.449 100.706 205.42 100.917C204.392 101.127 203.218 101.232 201.897 101.232ZM201.144 83.2513C199.835 83.2513 198.783 83.6909 197.989 84.5701C197.206 85.4494 196.738 86.7311 196.586 88.4153H205.385C205.362 86.7187 204.976 85.437 204.228 84.5701C203.481 83.6909 202.452 83.2513 201.144 83.2513Z" fill="white"/>
<path d="M218.233 80.3163V88.5639H227.364V80.3163H231.483V100.861H227.364V92.0003H218.233V100.861H214.114V80.3163H218.233Z" fill="white"/>
<path d="M241.509 80.3163V88.5639H250.641V80.3163H254.76V100.861H250.641V92.0003H241.509V100.861H237.39V80.3163H241.509Z" fill="white"/>
<path d="M272.795 100.861L271.971 98.0002H271.831C270.896 99.251 269.956 100.105 269.009 100.564C268.063 101.009 266.848 101.232 265.364 101.232C263.459 101.232 261.969 100.688 260.894 99.5977C259.831 98.508 259.299 96.9662 259.299 94.9724C259.299 92.8548 260.041 91.2573 261.525 90.1799C263.009 89.1026 265.27 88.5143 268.308 88.4153L271.656 88.3038V87.2079C271.656 85.8952 271.364 84.9169 270.78 84.2729C270.207 83.6166 269.313 83.2884 268.098 83.2884C267.105 83.2884 266.152 83.4432 265.241 83.7528C264.33 84.0624 263.453 84.4277 262.612 84.8488L261.28 81.7281C262.331 81.146 263.482 80.7064 264.733 80.4092C265.983 80.0996 267.163 79.9448 268.273 79.9448C270.739 79.9448 272.597 80.5145 273.847 81.6538C275.109 82.7931 275.74 84.5825 275.74 87.0221V100.861H272.795ZM266.661 97.8888C268.156 97.8888 269.354 97.4492 270.254 96.5699C271.165 95.6783 271.621 94.4337 271.621 92.8362V91.053L269.132 91.1644C267.192 91.2387 265.779 91.5855 264.89 92.2047C264.014 92.8115 263.576 93.7464 263.576 95.0096C263.576 95.926 263.833 96.638 264.347 97.1458C264.861 97.6411 265.632 97.8888 266.661 97.8888Z" fill="white"/>
<path d="M283.469 100.861H278.86L284.258 92.4462C282.949 92.0499 281.921 91.344 281.173 90.3285C280.426 89.3007 280.052 88.0314 280.052 86.5206C280.052 84.5763 280.706 83.0593 282.015 81.9696C283.323 80.8674 285.111 80.3163 287.378 80.3163H296.212V100.861H292.075V92.9477H288.167L283.469 100.861ZM284.065 86.5577C284.065 87.6103 284.439 88.4029 285.187 88.9354C285.947 89.4555 286.963 89.7156 288.237 89.7156H292.075V83.6228H287.588C286.467 83.6228 285.596 83.8766 284.977 84.3844C284.369 84.8921 284.065 85.6166 284.065 86.5577Z" fill="white"/>
<path d="M323.958 80.3163V83.7342H315.544V100.861H311.425V80.3163H323.958Z" fill="white"/>
<path d="M339.82 100.861L338.996 98.0002H338.856C337.921 99.251 336.98 100.105 336.034 100.564C335.087 101.009 333.872 101.232 332.388 101.232C330.484 101.232 328.994 100.688 327.919 99.5977C326.855 98.508 326.324 96.9662 326.324 94.9724C326.324 92.8548 327.066 91.2573 328.55 90.1799C330.034 89.1026 332.295 88.5143 335.333 88.4153L338.68 88.3038V87.2079C338.68 85.8952 338.388 84.9169 337.804 84.2729C337.232 83.6166 336.338 83.2884 335.122 83.2884C334.129 83.2884 333.177 83.4432 332.265 83.7528C331.354 84.0624 330.478 84.4277 329.636 84.8488L328.304 81.7281C329.356 81.146 330.507 80.7064 331.757 80.4092C333.007 80.0996 334.188 79.9448 335.298 79.9448C337.763 79.9448 339.621 80.5145 340.871 81.6538C342.133 82.7931 342.764 84.5825 342.764 87.0221V100.861H339.82ZM333.685 97.8888C335.181 97.8888 336.379 97.4492 337.278 96.5699C338.19 95.6783 338.645 94.4337 338.645 92.8362V91.053L336.157 91.1644C334.217 91.2387 332.803 91.5855 331.915 92.2047C331.039 92.8115 330.6 93.7464 330.6 95.0096C330.6 95.926 330.857 96.638 331.372 97.1458C331.886 97.6411 332.657 97.8888 333.685 97.8888Z" fill="white"/>
<path d="M364.446 100.861H360.292V83.7342H354.946C354.619 88.1428 354.175 91.5855 353.614 94.0622C353.065 96.539 352.34 98.347 351.44 99.4863C350.552 100.626 349.396 101.195 347.97 101.195C347.07 101.195 346.317 101.059 345.709 100.787V97.3687C346.141 97.542 346.574 97.6287 347.006 97.6287C348.198 97.6287 349.133 96.2108 349.81 93.3749C350.5 90.5267 351.037 86.1738 351.423 80.3163H364.446V100.861Z" fill="white"/>
<path d="M378.818 101.232C375.803 101.232 373.443 100.304 371.737 98.4461C370.043 96.5761 369.196 94.0065 369.196 90.7372C369.196 87.3812 369.984 84.7435 371.562 82.824C373.139 80.9046 375.307 79.9448 378.064 79.9448C380.623 79.9448 382.645 80.7683 384.129 82.4154C385.613 84.0624 386.355 86.3286 386.355 89.214V91.5731H373.437C373.496 93.5669 374.004 95.1025 374.962 96.1798C375.92 97.2448 377.27 97.7773 379.011 97.7773C380.156 97.7773 381.219 97.6659 382.201 97.443C383.194 97.2077 384.257 96.8238 385.391 96.2913V99.8392C384.386 100.347 383.369 100.706 382.341 100.917C381.313 101.127 380.138 101.232 378.818 101.232ZM378.064 83.2513C376.756 83.2513 375.704 83.6909 374.909 84.5701C374.127 85.4494 373.659 86.7311 373.507 88.4153H382.306C382.283 86.7187 381.897 85.437 381.149 84.5701C380.401 83.6909 379.373 83.2513 378.064 83.2513Z" fill="white"/>
<path d="M400.867 101.232C398.414 101.232 396.509 100.297 395.153 98.4275H394.908C395.072 100.161 395.153 101.214 395.153 101.585V110H391.035V80.3163H394.365C394.458 80.7002 394.651 81.6166 394.943 83.0655H395.153C396.439 80.9851 398.367 79.9448 400.938 79.9448C403.356 79.9448 405.238 80.8736 406.581 82.7312C407.937 84.5887 408.614 87.1955 408.614 90.5515C408.614 93.9074 407.925 96.5266 406.546 98.4089C405.179 100.291 403.286 101.232 400.867 101.232ZM399.868 83.5113C398.232 83.5113 397.035 84.0191 396.275 85.0345C395.527 86.05 395.153 87.6722 395.153 89.9013V90.5515C395.153 93.053 395.527 94.8672 396.275 95.9941C397.023 97.1086 398.244 97.6659 399.938 97.6659C401.364 97.6659 402.462 97.0467 403.234 95.8083C404.005 94.57 404.39 92.8053 404.39 90.5143C404.39 88.2109 404.005 86.471 403.234 85.2946C402.474 84.1057 401.352 83.5113 399.868 83.5113Z" fill="white"/>
<path d="M421.865 101.232C418.85 101.232 416.49 100.304 414.784 98.4461C413.09 96.5761 412.243 94.0065 412.243 90.7372C412.243 87.3812 413.031 84.7435 414.609 82.824C416.186 80.9046 418.354 79.9448 421.111 79.9448C423.67 79.9448 425.692 80.7683 427.176 82.4154C428.66 84.0624 429.402 86.3286 429.402 89.214V91.5731H416.484C416.543 93.5669 417.051 95.1025 418.009 96.1798C418.967 97.2448 420.317 97.7773 422.058 97.7773C423.203 97.7773 424.266 97.6659 425.248 97.443C426.241 97.2077 427.304 96.8238 428.438 96.2913V99.8392C427.433 100.347 426.416 100.706 425.388 100.917C424.36 101.127 423.186 101.232 421.865 101.232ZM421.111 83.2513C419.803 83.2513 418.751 83.6909 417.957 84.5701C417.174 85.4494 416.706 86.7311 416.554 88.4153H425.353C425.33 86.7187 424.944 85.437 424.196 84.5701C423.448 83.6909 422.42 83.2513 421.111 83.2513Z" fill="white"/>
<path d="M436.062 100.861H431.453L436.851 92.4462C435.542 92.0499 434.514 91.344 433.766 90.3285C433.018 89.3007 432.644 88.0314 432.644 86.5206C432.644 84.5763 433.299 83.0593 434.608 81.9696C435.916 80.8674 437.704 80.3163 439.971 80.3163H448.805V100.861H444.668V92.9477H440.76L436.062 100.861ZM436.658 86.5577C436.658 87.6103 437.032 88.4029 437.78 88.9354C438.539 89.4555 439.556 89.7156 440.83 89.7156H444.668V83.6228H440.181C439.059 83.6228 438.189 83.8766 437.57 84.3844C436.962 84.8921 436.658 85.6166 436.658 86.5577Z" fill="white"/>
<path d="M0 59.542H30.3324C42.2951 59.542 48.4183 53.8004 48.4183 42.8702V42.7001C48.4183 34.5769 44.5254 29.6434 37.0234 28.2399V27.4744C43.3088 26.1985 46.5935 21.8604 46.5935 14.8004V14.5878C46.5935 4.97601 40.8758 0 29.6836 0H0V59.542ZM11.9626 24.3697V8.42094H26.1151C31.8328 8.42094 34.6714 11.0578 34.6714 16.2465V16.4166C34.6714 21.6903 31.8328 24.3697 26.1151 24.3697H11.9626ZM11.9626 51.0785V32.1101H26.48C32.7655 32.1101 35.8879 35.2574 35.8879 41.4242V41.5943C35.8879 47.8888 32.7655 51.0785 26.48 51.0785H11.9626Z" fill="white"/>
<path d="M59.6867 0V59.542H71.4872V0H59.6867Z" fill="white"/>
<path d="M96.1781 60.6478C105.708 60.6478 112.642 56.1821 115.197 48.6118L116.008 48.8244C114.467 57.0753 116.089 60.6478 125.416 60.6478C126.592 60.6478 127.768 60.5202 128.741 60.3501L130.12 52.9924L128.092 52.9498C125.862 52.9073 125.213 52.3544 125.213 49.3348V28.8779C125.213 18.7557 118.806 13.9073 105.14 13.9073C90.6225 13.9073 83.2827 19.904 83.891 30.2814L95.5293 31.3021C95.0426 24.4547 98.3679 21.3501 104.897 21.3501C110.736 21.3501 113.493 23.6041 113.493 28.7503V31.2595L101.977 33.4711C90.4603 35.7252 82.8367 39.5529 82.8367 48.9095V49.0371C82.8367 56.4373 87.6217 60.6478 96.1781 60.6478ZM100.882 52.3969C96.908 52.3969 94.7588 50.9084 94.7588 47.8462V47.7612C94.7588 43.3806 98.5301 41.5943 105.992 40.0633L113.493 38.5322V40.6161C113.493 47.4635 107.614 52.3969 100.882 52.3969Z" fill="white"/>
<path d="M140.05 59.542H151.85V38.7874C151.85 28.7503 156.351 22.5409 163.813 22.5409C169.368 22.5409 172.126 25.5605 172.126 31.3446V59.542H183.926V28.3675C183.926 19.0109 178.695 14.0774 168.963 14.0774C160.123 14.0774 154.081 18.1603 150.512 26.6663L149.701 26.2835C151.323 21.2225 151.891 18.2028 151.891 14.8855H140.05V59.542Z" fill="white"/>
<path d="M219.039 60.6052C232.948 60.6052 240.734 54.7361 241.91 43.3806L229.988 41.9771C229.501 49.1221 225.77 52.7372 219.08 52.7372C211.578 52.7372 207.685 47.8037 207.685 38.0643V35.9804C207.685 26.4537 211.618 21.6478 218.958 21.6478C225.73 21.6478 229.258 25.6031 229.785 33.5136L241.545 32.1101C240.612 20.0742 233.11 13.8222 218.998 13.8222C203.67 13.8222 195.6 21.6903 195.6 36.7459V37.2988C195.6 52.6096 203.589 60.6052 219.039 60.6052Z" fill="white"/>
<path d="M253.665 59.542H265.465V38.7874C265.465 28.7503 269.926 22.5834 277.428 22.5834C282.984 22.5834 285.741 25.5605 285.741 31.3446V59.542H297.542V28.3675C297.542 19.0109 292.27 14.0774 282.578 14.0774C273.657 14.0774 267.655 18.1603 264.127 26.6238L263.276 26.2835C264.857 21.5202 265.425 17.9902 265.465 13.7797V0H253.665V59.542Z" fill="white"/>
<path d="M322.03 60.6478C331.559 60.6478 338.494 56.1821 341.048 48.6118L341.859 48.8244C340.318 57.0753 341.94 60.6478 351.267 60.6478C352.443 60.6478 353.619 60.5202 354.592 60.3501L355.971 52.9924L353.944 52.9498C351.713 52.9073 351.064 52.3544 351.064 49.3348V28.8779C351.064 18.7557 344.657 13.9073 330.992 13.9073C316.474 13.9073 309.134 19.904 309.743 30.2814L321.381 31.3021C320.894 24.4547 324.219 21.3501 330.748 21.3501C336.588 21.3501 339.345 23.6041 339.345 28.7503V31.2595L327.829 33.4711C316.312 35.7252 308.688 39.5529 308.688 48.9095V49.0371C308.688 56.4373 313.473 60.6478 322.03 60.6478ZM326.734 52.3969C322.76 52.3969 320.61 50.9084 320.61 47.8462V47.7612C320.61 43.3806 324.382 41.5943 331.843 40.0633L339.345 38.5322V40.6161C339.345 47.4635 333.465 52.3969 326.734 52.3969Z" fill="white"/>
<path d="M365.901 59.542H377.702V40.8713C377.702 29.2181 381.149 24.9226 390.151 24.2421L395.95 23.7743L394.571 13.482C385.042 14.2475 380.621 17.3948 376.242 26.6663L375.471 26.2835C377.377 20.3293 377.823 17.9477 377.742 14.8855H365.901V59.542Z" fill="white"/>
<path d="M422.02 60.3501C430.779 60.3501 436.496 56.0971 439.376 48.3991L440.227 48.6968C438.848 53.3751 438.118 57.0752 438.078 59.542H450V0H438.2V12.121C438.2 16.7993 438.808 20.5845 440.268 25.7306L439.457 26.0709C436.577 18.4155 430.819 13.9924 422.02 13.9924C409.854 13.9924 403.447 21.7754 403.447 36.6609V37.7241C403.447 52.5671 409.854 60.3501 422.02 60.3501ZM426.48 52.6947C419.181 52.6947 415.369 47.8037 415.369 38.1494V36.193C415.369 26.4962 419.181 21.5627 426.48 21.5627C434.104 21.5627 438.2 26.7514 438.2 36.4057V37.9368C438.2 47.5485 434.104 52.6947 426.48 52.6947Z" fill="white"/>
</svg>
