<svg width="350" height="20" viewBox="0 0 350 20" fill="none" xmlns="http://www.w3.org/2000/svg">
<path d="M3.81523 0C4.09169 0 4.32669 0.0935829 4.52021 0.280749C4.71374 0.467915 4.8105 0.695187 4.8105 0.962567V2.91444C4.8105 3.18182 4.71374 3.40909 4.52021 3.59626C4.32669 3.78342 4.09169 3.87701 3.81523 3.87701H0.96763C0.709595 3.87701 0.483815 3.78342 0.290289 3.59626C0.096763 3.40909 0 3.18182 0 2.91444V0.962567C0 0.695187 0.096763 0.467915 0.290289 0.280749C0.483815 0.0935829 0.709595 0 0.96763 0H3.81523ZM16.1732 0C16.4313 0 16.6571 0.0935829 16.8506 0.280749C17.0441 0.467915 17.1409 0.695187 17.1409 0.962567V2.91444C17.1409 3.18182 17.0441 3.40909 16.8506 3.59626C16.6571 3.78342 16.4313 3.87701 16.1732 3.87701H10.6163V19.0642C10.6163 19.3137 10.5195 19.5321 10.326 19.7193C10.1325 19.9064 9.90669 20 9.64865 20H7.51987C7.2434 20 7.0084 19.9064 6.81488 19.7193C6.62135 19.5321 6.52459 19.3137 6.52459 19.0642V0.962567C6.52459 0.695187 6.62135 0.467915 6.81488 0.280749C7.0084 0.0935829 7.2434 0 7.51987 0H16.1732ZM40.4027 18.5294C40.5317 18.8146 40.4995 19.1043 40.3059 19.3984C40.1124 19.6925 39.8498 19.8396 39.518 19.8396H21.1054C20.9395 19.8396 20.7828 19.7995 20.6354 19.7193C20.4879 19.639 20.3774 19.5365 20.3036 19.4118C20.1009 19.1266 20.0732 18.8324 20.2207 18.5294L21.0777 16.5775C21.1515 16.3993 21.2713 16.2567 21.4371 16.1497C21.603 16.0428 21.7781 15.9893 21.9624 15.9893H34.8457L30.3117 5.50802L26.6071 14.0642C26.5333 14.2424 26.4181 14.3806 26.2615 14.4786C26.1048 14.5766 25.9251 14.6257 25.7224 14.6257H23.4001C23.0499 14.6257 22.7734 14.4831 22.5707 14.1979C22.4969 14.0731 22.4509 13.9305 22.4324 13.7701C22.414 13.6096 22.4324 13.4581 22.4877 13.3155L28.1 0.588235C28.1737 0.409982 28.2889 0.26738 28.4455 0.160428C28.6022 0.0534758 28.7819 0 28.9847 0H31.6387C31.8415 0 32.0212 0.0534758 32.1778 0.160428C32.3345 0.26738 32.4497 0.409982 32.5234 0.588235L40.4027 18.5294ZM47.2701 0C47.5466 0 47.7816 0.0935829 47.9751 0.280749C48.1686 0.467915 48.2654 0.695187 48.2654 0.962567V2.91444C48.2654 3.18182 48.1686 3.40909 47.9751 3.59626C47.7816 3.78342 47.5466 3.87701 47.2701 3.87701H44.4225C44.1645 3.87701 43.9387 3.78342 43.7452 3.59626C43.5516 3.40909 43.4549 3.18182 43.4549 2.91444V0.962567C43.4549 0.695187 43.5516 0.467915 43.7452 0.280749C43.9387 0.0935829 44.1645 0 44.4225 0H47.2701ZM59.6281 0C59.8861 0 60.1119 0.0935829 60.3055 0.280749C60.499 0.467915 60.5957 0.695187 60.5957 0.962567V2.91444C60.5957 3.18182 60.499 3.40909 60.3055 3.59626C60.1119 3.78342 59.8861 3.87701 59.6281 3.87701H54.0712V19.0642C54.0712 19.3137 53.9744 19.5321 53.7809 19.7193C53.5873 19.9064 53.3616 20 53.1035 20H50.9747C50.6983 20 50.4633 19.9064 50.2698 19.7193C50.0762 19.5321 49.9795 19.3137 49.9795 19.0642V0.962567C49.9795 0.695187 50.0762 0.467915 50.2698 0.280749C50.4633 0.0935829 50.6983 0 50.9747 0H59.6281ZM83.0835 0.508022C83.1756 0.668449 83.2171 0.83779 83.2079 1.01604C83.1987 1.1943 83.1388 1.35472 83.0282 1.49733L75.3701 12.1925V19.0642C75.3701 19.3137 75.2733 19.5321 75.0798 19.7193C74.8863 19.9064 74.6605 20 74.4024 20H72.2737C71.9972 20 71.7622 19.9064 71.5687 19.7193C71.3751 19.5321 71.2784 19.3137 71.2784 19.0642V11.2299C71.2784 11.0517 71.3429 10.8734 71.4719 10.6952L78.8535 0.40107C78.9457 0.276293 79.0609 0.178253 79.1991 0.106952C79.3374 0.0356505 79.4894 0 79.6553 0H82.2264C82.4107 0 82.5812 0.0445631 82.7379 0.13369C82.8945 0.222816 83.0097 0.347594 83.0835 0.508022ZM71.4443 6.39037C71.3705 6.5508 71.2553 6.67558 71.0987 6.76471C70.942 6.85383 70.7715 6.8984 70.5872 6.8984H68.0161C67.6843 6.8984 67.4079 6.76471 67.1867 6.49733L63.5926 1.49733C63.5005 1.35472 63.4498 1.1943 63.4406 1.01604C63.4314 0.83779 63.4636 0.668449 63.5373 0.508022C63.6111 0.347594 63.7263 0.222816 63.8829 0.13369C64.0396 0.0445631 64.2101 0 64.3944 0H66.9932C67.3065 0 67.5737 0.13369 67.7949 0.40107L71.389 5.40107C71.4811 5.54367 71.5318 5.7041 71.541 5.88235C71.5502 6.06061 71.518 6.22995 71.4443 6.39037ZM106.096 18.5294C106.225 18.8146 106.193 19.1043 106 19.3984C105.806 19.6925 105.544 19.8396 105.212 19.8396H86.7992C86.6333 19.8396 86.4766 19.7995 86.3292 19.7193C86.1817 19.639 86.0711 19.5365 85.9974 19.4118C85.7947 19.1266 85.767 18.8324 85.9145 18.5294L86.7715 16.5775C86.8452 16.3993 86.965 16.2567 87.1309 16.1497C87.2968 16.0428 87.4719 15.9893 87.6562 15.9893H100.54L96.0055 5.50802L92.3008 14.0642C92.2271 14.2424 92.1119 14.3806 91.9552 14.4786C91.7986 14.5766 91.6189 14.6257 91.4161 14.6257H89.0938C88.7436 14.6257 88.4672 14.4831 88.2644 14.1979C88.1907 14.0731 88.1446 13.9305 88.1262 13.7701C88.1078 13.6096 88.1262 13.4581 88.1815 13.3155L93.7937 0.588235C93.8675 0.409982 93.9827 0.26738 94.1393 0.160428C94.296 0.0534758 94.4757 0 94.6784 0H97.3325C97.5352 0 97.7149 0.0534758 97.8716 0.160428C98.0283 0.26738 98.1435 0.409982 98.2172 0.588235L106.096 18.5294ZM127.948 0C128.206 0 128.432 0.0935829 128.626 0.280749C128.819 0.467915 128.916 0.686274 128.916 0.935829V18.8503C128.916 19.0998 128.819 19.3182 128.626 19.5053C128.432 19.6925 128.206 19.7861 127.948 19.7861H125.515C125.184 19.7861 124.916 19.6613 124.714 19.4118L111.194 1.49733C111.084 1.35472 111.019 1.1943 111.001 1.01604C110.983 0.83779 111.015 0.668449 111.098 0.508022C111.181 0.347594 111.3 0.222816 111.457 0.13369C111.614 0.0445631 111.784 0 111.969 0H114.401C114.549 0 114.696 0.0311945 114.844 0.0935831C114.991 0.155972 115.102 0.249555 115.176 0.374332L124.88 13.1283V0.935829C124.88 0.686274 124.972 0.467915 125.156 0.280749C125.34 0.0935829 125.571 0 125.847 0H127.948ZM114.07 12.9679C114.328 12.9679 114.554 13.057 114.747 13.2353C114.941 13.4135 115.037 13.6364 115.037 13.9037V18.8503C115.037 19.0998 114.941 19.3182 114.747 19.5053C114.554 19.6925 114.328 19.7861 114.07 19.7861H111.969C111.711 19.7861 111.485 19.6925 111.291 19.5053C111.098 19.3182 111.001 19.0998 111.001 18.8503V13.9037C111.001 13.6364 111.098 13.4135 111.291 13.2353C111.485 13.057 111.711 12.9679 111.969 12.9679H114.07ZM154.03 18.5294C154.159 18.8146 154.127 19.1043 153.933 19.3984C153.74 19.6925 153.477 19.8396 153.145 19.8396H134.733C134.567 19.8396 134.41 19.7995 134.263 19.7193C134.115 19.639 134.005 19.5365 133.931 19.4118C133.728 19.1266 133.701 18.8324 133.848 18.5294L134.705 16.5775C134.779 16.3993 134.899 16.2567 135.065 16.1497C135.23 16.0428 135.406 15.9893 135.59 15.9893H148.473L143.939 5.50802L140.234 14.0642C140.161 14.2424 140.046 14.3806 139.889 14.4786C139.732 14.5766 139.552 14.6257 139.35 14.6257H137.027C136.677 14.6257 136.401 14.4831 136.198 14.1979C136.124 14.0731 136.078 13.9305 136.06 13.7701C136.041 13.6096 136.06 13.4581 136.115 13.3155L141.727 0.588235C141.801 0.409982 141.916 0.26738 142.073 0.160428C142.23 0.0534758 142.409 0 142.612 0H145.266C145.469 0 145.649 0.0534758 145.805 0.160428C145.962 0.26738 146.077 0.409982 146.151 0.588235L154.03 18.5294ZM181.782 9.59893C182.74 10.1693 183.44 10.9893 183.883 12.0588C184.141 12.6292 184.27 13.3333 184.27 14.1711C184.27 15.4724 183.91 16.5642 183.192 17.4465C182.473 18.3289 181.422 18.984 180.04 19.4118C179.174 19.697 178.151 19.8396 176.971 19.8396H168.152C167.894 19.8396 167.668 19.746 167.475 19.5588C167.281 19.3717 167.184 19.1533 167.184 18.9037V16.9786C167.184 16.7112 167.281 16.484 167.475 16.2968C167.668 16.1096 167.894 16.016 168.152 16.016H177.192C178.261 16.016 179.054 15.8289 179.57 15.4545C180.012 15.098 180.233 14.6123 180.233 13.9973C180.233 13.3824 180.003 12.8788 179.542 12.4866C178.971 12.0053 178.114 11.7647 176.971 11.7647H168.152C167.894 11.7647 167.668 11.6711 167.475 11.484C167.281 11.2968 167.184 11.0695 167.184 10.8021V8.95722C167.184 8.70766 167.281 8.48931 167.475 8.30214C167.668 8.11497 167.894 8.02139 168.152 8.02139H176.474C177.266 8.02139 177.884 7.8877 178.326 7.62032C178.639 7.44207 178.888 7.1836 179.072 6.84492C179.201 6.59537 179.266 6.3057 179.266 5.97594C179.266 5.64617 179.22 5.34759 179.128 5.08021C179.054 4.86631 178.925 4.67023 178.741 4.49198C178.335 4.04635 177.662 3.82353 176.722 3.82353H168.152C167.894 3.82353 167.668 3.72995 167.475 3.54278C167.281 3.35562 167.184 3.12834 167.184 2.86096V0.935829C167.184 0.686274 167.281 0.467915 167.475 0.280749C167.668 0.0935829 167.894 0 168.152 0H176.474C178.759 0 180.519 0.623886 181.754 1.87166C182.805 2.8877 183.33 4.16221 183.33 5.69519C183.33 7.33512 182.814 8.63636 181.782 9.59893ZM208.278 18.5294C208.407 18.8146 208.375 19.1043 208.181 19.3984C207.988 19.6925 207.725 19.8396 207.393 19.8396H188.981C188.815 19.8396 188.658 19.7995 188.511 19.7193C188.363 19.639 188.253 19.5365 188.179 19.4118C187.976 19.1266 187.949 18.8324 188.096 18.5294L188.953 16.5775C189.027 16.3993 189.147 16.2567 189.313 16.1497C189.478 16.0428 189.654 15.9893 189.838 15.9893H202.721L198.187 5.50802L194.483 14.0642C194.409 14.2424 194.294 14.3806 194.137 14.4786C193.98 14.5766 193.801 14.6257 193.598 14.6257H191.276C190.925 14.6257 190.649 14.4831 190.446 14.1979C190.372 14.0731 190.326 13.9305 190.308 13.7701C190.289 13.6096 190.308 13.4581 190.363 13.3155L195.975 0.588235C196.049 0.409982 196.164 0.26738 196.321 0.160428C196.478 0.0534758 196.657 0 196.86 0H199.514C199.717 0 199.897 0.0534758 200.053 0.160428C200.21 0.26738 200.325 0.409982 200.399 0.588235L208.278 18.5294ZM226.287 12.1658L230.462 18.3422C230.665 18.6631 230.674 18.984 230.489 19.3048C230.416 19.4474 230.301 19.5633 230.144 19.6524C229.987 19.7415 229.826 19.7861 229.66 19.7861H227.144C226.978 19.7861 226.822 19.746 226.674 19.6658C226.527 19.5856 226.416 19.4831 226.342 19.3583L222.14 12.9144H217.219V18.8503C217.219 19.0998 217.122 19.3182 216.929 19.5053C216.735 19.6925 216.509 19.7861 216.251 19.7861H214.15C213.892 19.7861 213.666 19.6925 213.473 19.5053C213.279 19.3182 213.183 19.0998 213.183 18.8503V10.0535C213.183 9.80392 213.279 9.58556 213.473 9.3984C213.666 9.21123 213.892 9.11765 214.15 9.11765H222.665C224.287 9.11765 225.366 8.67201 225.9 7.78075C226.084 7.49554 226.177 7.08556 226.177 6.5508C226.177 5.71301 225.891 5.05348 225.32 4.57219C224.73 4.05526 223.882 3.79679 222.776 3.79679H214.15C213.892 3.79679 213.666 3.70321 213.473 3.51604C213.279 3.32888 213.183 3.11052 213.183 2.86096V0.935829C213.183 0.686274 213.279 0.467915 213.473 0.280749C213.666 0.0935829 213.892 0 214.15 0H223.025C225.181 0 226.905 0.588236 228.195 1.76471C229.54 2.94118 230.213 4.53654 230.213 6.5508C230.213 7.85205 229.918 8.96168 229.328 9.87968C228.738 10.7977 227.881 11.4973 226.757 11.9786L226.287 12.1658ZM254.442 18.5294C254.571 18.8146 254.539 19.1043 254.346 19.3984C254.152 19.6925 253.889 19.8396 253.558 19.8396H235.145C234.979 19.8396 234.823 19.7995 234.675 19.7193C234.528 19.639 234.417 19.5365 234.343 19.4118C234.141 19.1266 234.113 18.8324 234.26 18.5294L235.117 16.5775C235.191 16.3993 235.311 16.2567 235.477 16.1497C235.643 16.0428 235.818 15.9893 236.002 15.9893H248.885L244.351 5.50802L240.647 14.0642C240.573 14.2424 240.458 14.3806 240.301 14.4786C240.145 14.5766 239.965 14.6257 239.762 14.6257H237.44C237.09 14.6257 236.813 14.4831 236.61 14.1979C236.537 14.0731 236.491 13.9305 236.472 13.7701C236.454 13.6096 236.472 13.4581 236.527 13.3155L242.14 0.588235C242.213 0.409982 242.329 0.26738 242.485 0.160428C242.642 0.0534758 242.822 0 243.024 0H245.678C245.881 0 246.061 0.0534758 246.218 0.160428C246.374 0.26738 246.489 0.409982 246.563 0.588235L254.442 18.5294ZM276.294 0C276.552 0 276.778 0.0935829 276.972 0.280749C277.165 0.467915 277.262 0.686274 277.262 0.935829V18.8503C277.262 19.0998 277.165 19.3182 276.972 19.5053C276.778 19.6925 276.552 19.7861 276.294 19.7861H273.861C273.53 19.7861 273.262 19.6613 273.06 19.4118L259.54 1.49733C259.43 1.35472 259.365 1.1943 259.347 1.01604C259.328 0.83779 259.361 0.668449 259.444 0.508022C259.527 0.347594 259.646 0.222816 259.803 0.13369C259.96 0.0445631 260.13 0 260.315 0H262.747C262.895 0 263.042 0.0311945 263.19 0.0935831C263.337 0.155972 263.448 0.249555 263.522 0.374332L273.225 13.1283V0.935829C273.225 0.686274 273.318 0.467915 273.502 0.280749C273.686 0.0935829 273.917 0 274.193 0H276.294ZM262.416 12.9679C262.674 12.9679 262.899 13.057 263.093 13.2353C263.287 13.4135 263.383 13.6364 263.383 13.9037V18.8503C263.383 19.0998 263.287 19.3182 263.093 19.5053C262.899 19.6925 262.674 19.7861 262.416 19.7861H260.315C260.056 19.7861 259.831 19.6925 259.637 19.5053C259.444 19.3182 259.347 19.0998 259.347 18.8503V13.9037C259.347 13.6364 259.444 13.4135 259.637 13.2353C259.831 13.057 260.056 12.9679 260.315 12.9679H262.416ZM292.202 0.213904C292.423 0.392157 292.534 0.632798 292.534 0.935829V2.94118C292.534 3.17291 292.465 3.37344 292.326 3.54278C292.188 3.71212 291.999 3.82353 291.76 3.87701C290.58 4.10873 289.576 4.65241 288.746 5.50802C287.622 6.64884 287.06 8.1328 287.06 9.95989C287.06 11.787 287.622 13.2799 288.746 14.4385C289.576 15.2763 290.58 15.8111 291.76 16.0428C291.999 16.0963 292.188 16.2077 292.326 16.377C292.465 16.5463 292.534 16.7469 292.534 16.9786V18.984C292.534 19.2692 292.423 19.5098 292.202 19.7059C291.999 19.8485 291.787 19.9198 291.566 19.9198H291.4C289.262 19.5811 287.428 18.6453 285.899 17.1123C283.982 15.205 283.023 12.8298 283.023 9.98663C283.023 7.14349 283.982 4.75045 285.899 2.80749C287.392 1.31016 289.225 0.383244 291.4 0.0267379C291.695 -0.026738 291.962 0.0356504 292.202 0.213904ZM300.883 2.80749C302.8 4.75045 303.758 7.14349 303.758 9.98663C303.758 12.8298 302.8 15.205 300.883 17.1123C299.353 18.6453 297.519 19.5811 295.381 19.9198H295.216C294.994 19.9198 294.782 19.8485 294.58 19.7059C294.359 19.5098 294.248 19.2692 294.248 18.984V16.9786C294.248 16.7469 294.317 16.5463 294.455 16.377C294.594 16.2077 294.782 16.0963 295.022 16.0428C296.202 15.8111 297.206 15.2763 298.036 14.4385C299.16 13.2799 299.722 11.787 299.722 9.95989C299.722 8.1328 299.16 6.64884 298.036 5.50802C297.206 4.65241 296.202 4.10873 295.022 3.87701C294.782 3.82353 294.594 3.71212 294.455 3.54278C294.317 3.37344 294.248 3.17291 294.248 2.94118V0.935829C294.248 0.632798 294.363 0.392157 294.594 0.213904C294.824 0.0356504 295.087 -0.026738 295.381 0.0267379C297.556 0.383244 299.39 1.31016 300.883 2.80749ZM326.771 0.427808C326.974 0.695187 327.011 0.989305 326.882 1.31016L319.307 19.4118C319.233 19.59 319.113 19.7326 318.947 19.8396C318.781 19.9465 318.597 20 318.394 20H315.962C315.759 20 315.574 19.9465 315.409 19.8396C315.243 19.7326 315.123 19.59 315.049 19.4118L307.474 1.31016C307.327 1.00713 307.354 0.713013 307.557 0.427808C307.76 0.142603 308.027 0 308.359 0H317.593C317.851 0 318.077 0.0935829 318.27 0.280749C318.464 0.467915 318.56 0.695187 318.56 0.962567V2.91444C318.56 3.18182 318.464 3.40909 318.27 3.59626C318.077 3.78342 317.851 3.87701 317.593 3.87701H312.948L317.178 14.1711L322.735 0.588235C322.809 0.409982 322.928 0.26738 323.094 0.160428C323.26 0.0534758 323.445 0 323.647 0H325.97C326.135 0 326.292 0.0401072 326.44 0.120321C326.587 0.200535 326.698 0.303031 326.771 0.427808ZM349.923 18.5294C350.052 18.8146 350.019 19.1043 349.826 19.3984C349.632 19.6925 349.37 19.8396 349.038 19.8396H330.625C330.459 19.8396 330.303 19.7995 330.155 19.7193C330.008 19.639 329.897 19.5365 329.824 19.4118C329.621 19.1266 329.593 18.8324 329.741 18.5294L330.598 16.5775C330.671 16.3993 330.791 16.2567 330.957 16.1497C331.123 16.0428 331.298 15.9893 331.482 15.9893H344.366L339.832 5.50802L336.127 14.0642C336.053 14.2424 335.938 14.3806 335.781 14.4786C335.625 14.5766 335.445 14.6257 335.242 14.6257H332.92C332.57 14.6257 332.293 14.4831 332.091 14.1979C332.017 14.0731 331.971 13.9305 331.952 13.7701C331.934 13.6096 331.952 13.4581 332.008 13.3155L337.62 0.588235C337.694 0.409982 337.809 0.26738 337.965 0.160428C338.122 0.0534758 338.302 0 338.505 0H341.159C341.361 0 341.541 0.0534758 341.698 0.160428C341.854 0.26738 341.97 0.409982 342.043 0.588235L349.923 18.5294Z" fill="white"/>
</svg>
