<svg width="519" height="239" viewBox="0 0 519 239" fill="none" xmlns="http://www.w3.org/2000/svg">
<path d="M0.287964 218.903V145.064H19.8147V172.49H48.3131V145.064H67.8398V218.903H48.3131V190.422H19.8147V218.903H0.287964Z" fill="white"/>
<path d="M79.4006 149.284C79.4006 146.752 80.3506 144.643 82.2505 142.955C84.1504 141.197 86.5428 140.318 89.4279 140.318C92.3129 140.318 94.7053 141.197 96.6052 142.955C98.5051 144.643 99.4551 146.752 99.4551 149.284C99.4551 151.745 98.5051 153.855 96.6052 155.613C94.7053 157.371 92.3129 158.25 89.4279 158.25C86.5428 158.25 84.1504 157.371 82.2505 155.613C80.3506 153.855 79.4006 151.745 79.4006 149.284ZM80.4561 218.903V164.052H98.3996V218.903H80.4561Z" fill="white"/>
<path d="M114.472 210.57C109.757 205.366 107.4 198.65 107.4 190.423C107.4 182.195 109.757 175.479 114.472 170.275C119.187 165.071 124.921 162.469 131.677 162.469C136.532 162.469 140.719 163.876 144.237 166.689C145.855 167.955 147.122 169.361 148.037 170.908H149.092V164.052H167.036V238.945H114.789V224.705H149.092V210.465H148.037C147.052 212.012 145.785 213.348 144.237 214.473C140.789 217.075 136.602 218.376 131.677 218.376C124.921 218.376 119.187 215.774 114.472 210.57ZM129.038 181.14C126.927 183.39 125.871 186.485 125.871 190.423C125.871 194.361 126.927 197.455 129.038 199.705C131.149 201.956 133.964 203.081 137.482 203.081C141 203.081 143.815 201.956 145.926 199.705C148.037 197.455 149.092 194.361 149.092 190.423C149.092 186.485 148.037 183.39 145.926 181.14C143.815 178.89 141 177.765 137.482 177.765C133.964 177.765 131.149 178.89 129.038 181.14Z" fill="white"/>
<path d="M177.541 218.903V145.064H195.485V171.435H196.54C197.526 169.748 198.792 168.271 200.34 167.005C203.929 163.981 208.115 162.469 212.9 162.469C219.374 162.469 224.405 164.438 227.994 168.376C231.653 172.244 233.482 177.835 233.482 185.148V218.903H215.539V187.785C215.539 184.621 214.695 182.16 213.006 180.401C211.317 178.643 208.995 177.764 206.04 177.764C203.014 177.764 200.481 178.89 198.44 181.14C196.47 183.32 195.485 186.238 195.485 189.895V218.903H177.541Z" fill="white"/>
<path d="M273.092 238.945V164.052H291.035V171.436H292.091C293.076 169.818 294.413 168.341 296.102 167.005C299.972 163.981 304.088 162.469 308.451 162.469C315.206 162.469 320.941 165.142 325.656 170.486C330.37 175.76 332.727 182.757 332.727 191.477C332.727 200.197 330.37 207.23 325.656 212.574C320.941 217.848 315.206 220.486 308.451 220.486C304.018 220.486 299.901 219.009 296.102 216.055C294.413 214.719 293.076 213.207 292.091 211.519H291.035V238.945H273.092ZM294.202 181.351C292.091 183.742 291.035 187.117 291.035 191.477C291.035 195.837 292.091 199.213 294.202 201.604C296.313 203.995 299.127 205.19 302.646 205.19C306.164 205.19 308.979 203.995 311.09 201.604C313.201 199.213 314.256 195.837 314.256 191.477C314.256 187.117 313.201 183.742 311.09 181.351C308.979 178.96 306.164 177.765 302.646 177.765C299.127 177.765 296.313 178.96 294.202 181.351Z" fill="white"/>
<path d="M346.083 212.574C341.368 207.23 339.011 200.197 339.011 191.477C339.011 182.757 341.368 175.76 346.083 170.486C350.797 165.142 356.532 162.469 363.288 162.469C367.65 162.469 371.767 163.981 375.637 167.005C377.255 168.341 378.592 169.818 379.648 171.436H380.703V164.052H398.647V218.903H380.703V211.519H379.648C378.663 213.207 377.326 214.719 375.637 216.055C371.837 219.009 367.721 220.486 363.288 220.486C356.532 220.486 350.797 217.848 346.083 212.574ZM360.649 181.351C358.538 183.742 357.482 187.117 357.482 191.477C357.482 195.837 358.538 199.213 360.649 201.604C362.76 203.995 365.574 205.19 369.093 205.19C372.611 205.19 375.426 203.995 377.537 201.604C379.648 199.213 380.703 195.837 380.703 191.477C380.703 187.117 379.648 183.742 377.537 181.351C375.426 178.96 372.611 177.765 369.093 177.765C365.574 177.765 362.76 178.96 360.649 181.351Z" fill="white"/>
<path d="M405.986 200.971H423.929C424.211 202.026 424.809 203.01 425.724 203.925C427.624 205.823 430.368 206.773 433.957 206.773C438.882 206.773 441.345 205.542 441.345 203.081C441.345 201.956 440.641 201.076 439.234 200.444C437.827 199.74 435.716 199.037 432.901 198.334C430.579 197.771 429.066 197.42 428.363 197.279C427.659 197.138 426.181 196.752 423.929 196.119C421.678 195.416 420.059 194.818 419.074 194.326C418.159 193.763 416.858 192.989 415.169 192.005C413.55 190.95 412.354 189.895 411.58 188.84C410.876 187.715 410.208 186.344 409.575 184.726C408.941 183.039 408.625 181.246 408.625 179.347C408.625 174.706 410.701 170.732 414.852 167.427C419.004 164.122 424.844 162.469 432.373 162.469C441.803 162.469 449.261 165.564 454.75 171.752C456.931 174.424 458.444 177.483 459.289 180.929H441.873C441.451 179.804 440.958 178.925 440.395 178.292C438.777 176.534 436.455 175.655 433.429 175.655C429.207 175.655 427.096 176.886 427.096 179.347C427.096 180.542 427.8 181.456 429.207 182.089C430.614 182.722 432.76 183.32 435.645 183.883C442.893 185.57 447.784 187.047 450.317 188.313C456.65 191.407 459.816 196.154 459.816 202.553C459.816 207.616 457.565 211.871 453.061 215.317C448.628 218.763 442.26 220.486 433.957 220.486C423.753 220.486 415.978 217.251 410.63 210.781C408.238 207.898 406.69 204.628 405.986 200.971Z" fill="white"/>
<path d="M464.534 200.971H482.478C482.759 202.026 483.357 203.01 484.272 203.925C486.172 205.823 488.916 206.773 492.505 206.773C497.431 206.773 499.894 205.542 499.894 203.081C499.894 201.956 499.19 201.076 497.783 200.444C496.375 199.74 494.264 199.037 491.45 198.334C489.127 197.771 487.615 197.42 486.911 197.279C486.207 197.138 484.73 196.752 482.478 196.119C480.226 195.416 478.608 194.818 477.623 194.326C476.708 193.763 475.406 192.989 473.717 192.005C472.099 190.95 470.903 189.895 470.129 188.84C469.425 187.715 468.756 186.344 468.123 184.726C467.49 183.039 467.173 181.246 467.173 179.347C467.173 174.706 469.249 170.732 473.401 167.427C477.552 164.122 483.393 162.469 490.922 162.469C500.351 162.469 507.81 165.564 513.298 171.752C515.48 174.424 516.993 177.483 517.837 180.929H500.421C499.999 179.804 499.507 178.925 498.944 178.292C497.325 176.534 495.003 175.655 491.977 175.655C487.755 175.655 485.644 176.886 485.644 179.347C485.644 180.542 486.348 181.456 487.755 182.089C489.163 182.722 491.309 183.32 494.194 183.883C501.442 185.57 506.332 187.047 508.865 188.313C515.198 191.407 518.365 196.154 518.365 202.553C518.365 207.616 516.113 211.871 511.61 215.317C507.176 218.763 500.808 220.486 492.505 220.486C482.302 220.486 474.526 217.251 469.179 210.781C466.786 207.898 465.238 204.628 464.534 200.971Z" fill="white"/>
<path fill-rule="evenodd" clip-rule="evenodd" d="M206.11 21.0968V84.3871H269.44L206.11 21.0968ZM185 0V105.484H290.55V0H185Z" fill="#FF6E30"/>
</svg>
