<svg width="36" height="36" viewBox="0 0 36 36" fill="none" xmlns="http://www.w3.org/2000/svg">
<circle cx="18" cy="18" r="18" fill="#0F0A1D"/>
<path d="M9.55503 8C9.81265 8 10.0316 8.09358 10.2119 8.28075C10.3923 8.46791 10.4824 8.69519 10.4824 8.96257V10.9144C10.4824 11.1818 10.3923 11.4091 10.2119 11.5963C10.0316 11.7834 9.81265 11.877 9.55503 11.877H6.90164C6.6612 11.877 6.45082 11.7834 6.27049 11.5963C6.09016 11.4091 6 11.1818 6 10.9144V8.96257C6 8.69519 6.09016 8.46791 6.27049 8.28075C6.45082 8.09358 6.6612 8 6.90164 8H9.55503ZM21.0703 8C21.3107 8 21.5211 8.09358 21.7014 8.28075C21.8817 8.46791 21.9719 8.69519 21.9719 8.96257V10.9144C21.9719 11.1818 21.8817 11.4091 21.7014 11.5963C21.5211 11.7834 21.3107 11.877 21.0703 11.877H15.8923V27.0642C15.8923 27.3137 15.8021 27.5321 15.6218 27.7193C15.4415 27.9064 15.2311 28 14.9906 28H13.007C12.7494 28 12.5304 27.9064 12.3501 27.7193C12.1698 27.5321 12.0796 27.3137 12.0796 27.0642V8.96257C12.0796 8.69519 12.1698 8.46791 12.3501 8.28075C12.5304 8.09358 12.7494 8 13.007 8H21.0703Z" fill="white"/>
<path d="M27.6393 20.2193C27.2272 19.1497 26.5745 18.3298 25.6815 17.7594C26.6432 16.7968 27.1241 15.4955 27.1241 13.8556C27.1241 12.3226 26.6347 11.0481 25.6558 10.0321C24.5051 8.78431 22.8649 8 20.7354 8H13.007C12.7666 8 12.5304 8.09358 12.3501 8.28075C12.1698 8.46791 12.0796 8.8467 12.0796 9.09626V11.0214C12.0796 11.2888 12.1698 11.516 12.3501 11.7032C12.5304 11.8904 12.7408 11.984 12.9813 11.984H20.9672C21.8431 11.984 22.4699 12.2068 22.8478 12.6524C23.0195 12.8307 23.1397 13.0267 23.2084 13.2406C23.2943 13.508 23.3372 13.8066 23.3372 14.1364C23.3372 14.4661 23.2771 14.7558 23.1569 15.0053C22.9852 15.344 22.7533 15.6025 22.4614 15.7808C22.0492 16.0481 21.4738 16.1818 20.7354 16.1818H12.9813C12.7408 16.1818 12.5304 16.2754 12.3501 16.4626C12.1698 16.6497 12.0796 16.8681 12.0796 17.1176V18.9626C12.0796 19.2299 12.1698 19.4572 12.3501 19.6444C12.5304 19.8316 12.7408 19.9251 12.9813 19.9251H21.1991C22.2639 19.9251 23.0625 20.1658 23.5949 20.6471C24.0242 21.0392 24.2389 21.5428 24.2389 22.1578C24.2389 22.7727 24.0328 23.2585 23.6206 23.615C23.1397 23.9893 22.4012 24.1765 21.4052 24.1765H12.9813C12.7408 24.1765 12.5304 24.2701 12.3501 24.4572C12.1698 24.6444 12.0796 24.8717 12.0796 25.139V27.0642C12.0796 27.3137 12.1698 27.5321 12.3501 27.7193C12.5304 27.9064 12.7408 28 12.9813 28H21.1991C22.2982 28 23.2514 27.8574 24.0585 27.5722C25.3466 27.1444 26.3255 26.4893 26.9953 25.607C27.6651 24.7246 28 23.6328 28 22.3316C28 21.4938 27.8798 20.7897 27.6393 20.2193Z" fill="white"/>
</svg>
