<svg width="542" height="174" viewBox="0 0 542 174" fill="none" xmlns="http://www.w3.org/2000/svg">
<path d="M143.415 127.859C140.306 136.866 135.643 144.645 129.426 151.196C123.371 157.746 116.008 162.741 107.336 166.18C98.8281 169.619 89.2562 171.339 78.6207 171.339C63.8946 171.339 50.9685 167.982 39.8421 161.267C28.8794 154.389 20.2892 144.727 14.0716 132.281C8.01751 119.835 4.99049 105.014 4.99049 87.8188C4.99049 70.6235 8.01751 55.8028 14.0716 43.3567C20.1256 30.9106 28.634 21.3303 39.5967 14.616C50.723 7.73787 63.6492 4.29881 78.3752 4.29881C89.338 4.29881 98.9099 5.85458 107.091 8.96611C115.436 11.9139 122.472 16.4174 128.198 22.4767C133.925 28.3722 138.261 35.6597 141.206 44.3393L129.18 49.9892C125.417 38.6894 119.445 30.1736 111.263 24.4419C103.082 18.5463 92.365 15.5986 79.1115 15.5986C67.0035 15.5986 56.2862 18.5463 46.9597 24.4419C37.7968 30.1736 30.5974 38.4437 25.3615 49.2522C20.2892 59.8969 17.7531 72.7525 17.7531 87.8188C17.7531 102.721 20.2892 115.577 25.3615 126.385C30.4338 137.194 37.5514 145.546 46.7143 151.441C55.8771 157.173 66.5126 160.039 78.6207 160.039C91.7105 160.039 102.837 156.928 112 150.704C121.163 144.318 127.544 135.147 131.144 123.192L143.415 127.859ZM224.669 43.6023C236.123 43.6023 246.186 46.1407 254.858 51.2174C263.693 56.2941 270.565 63.6635 275.474 73.3256C280.546 82.824 283.082 94.2056 283.082 107.471C283.082 120.736 280.546 132.199 275.474 141.861C270.565 151.36 263.693 158.647 254.858 163.724C246.186 168.8 236.123 171.339 224.669 171.339C213.216 171.339 203.071 168.8 194.235 163.724C185.563 158.647 178.691 151.36 173.619 141.861C168.71 132.199 166.256 120.736 166.256 107.471C166.256 94.2056 168.71 82.824 173.619 73.3256C178.691 63.6635 185.563 56.2941 194.235 51.2174C203.071 46.1407 213.216 43.6023 224.669 43.6023ZM224.669 54.1652C215.343 54.1652 207.243 56.2941 200.371 60.552C193.499 64.8099 188.1 70.951 184.173 78.9755C180.409 86.8362 178.528 96.3346 178.528 107.471C178.528 118.443 180.409 127.941 184.173 135.966C188.1 143.99 193.499 150.131 200.371 154.389C207.243 158.647 215.343 160.776 224.669 160.776C233.996 160.776 242.095 158.647 248.967 154.389C255.839 150.131 261.157 143.99 264.92 135.966C268.847 127.941 270.811 118.443 270.811 107.471C270.811 96.3346 268.847 86.8362 264.92 78.9755C261.157 70.951 255.839 64.8099 248.967 60.552C242.095 56.2941 233.996 54.1652 224.669 54.1652ZM324.306 22.231C321.197 22.231 318.661 21.3303 316.697 19.5289C314.897 17.5638 313.997 15.0254 313.997 11.9139C313.997 8.80234 314.897 6.34587 316.697 4.54445C318.661 2.57927 321.197 1.59668 324.306 1.59668C327.415 1.59668 329.869 2.57927 331.669 4.54445C333.632 6.34587 334.614 8.80234 334.614 11.9139C334.614 15.0254 333.632 17.5638 331.669 19.5289C329.869 21.3303 327.415 22.231 324.306 22.231ZM330.442 46.0588V168.882H318.17V46.0588H330.442ZM374.016 168.882V46.0588H385.06L386.042 76.7647L384.079 75.0452C386.369 68.3308 389.805 62.6809 394.387 58.0955C398.968 53.3463 404.45 49.7435 410.831 47.287C417.212 44.8306 424.084 43.6023 431.447 43.6023C440.61 43.6023 448.71 45.3219 455.745 48.7609C462.781 52.2 468.262 57.2767 472.189 63.991C476.28 70.7054 478.325 79.1393 478.325 89.2927V168.882H466.054V93.223C466.054 79.7943 462.699 69.9685 455.991 63.7454C449.446 57.5223 440.856 54.4108 430.22 54.4108C422.53 54.4108 415.331 56.2122 408.622 59.815C402.077 63.2541 396.678 68.3308 392.423 75.0452C388.333 81.7595 386.287 89.9478 386.287 99.6099V168.882H374.016ZM525.858 148.739C529.13 148.739 531.748 149.804 533.711 151.933C535.839 153.898 536.902 156.518 536.902 159.793C536.902 163.069 535.839 165.771 533.711 167.9C531.748 169.865 529.13 170.848 525.858 170.848C522.585 170.848 519.885 169.865 517.758 167.9C515.795 165.771 514.813 163.069 514.813 159.793C514.813 156.518 515.795 153.898 517.758 151.933C519.885 149.804 522.585 148.739 525.858 148.739Z" fill="white"/>
</svg>
