<svg width="558" height="265" viewBox="0 0 558 265" fill="none" xmlns="http://www.w3.org/2000/svg">
<path d="M60.2569 189.834C63.7566 189.834 67.391 190.229 71.1598 191.02C74.9287 191.757 78.4553 192.916 81.7398 194.496L77.2169 207.612C75.8172 207.137 74.3096 206.743 72.6943 206.426C71.1329 206.058 69.5715 205.768 68.0101 205.557C66.5025 205.346 65.0219 205.215 63.5683 205.162C62.1682 205.057 60.9032 205.004 59.7726 205.004C58.4802 205.004 57.5648 205.215 57.0266 205.636C56.5419 206.005 56.2998 206.558 56.2998 207.295C56.2998 208.033 57.134 208.665 58.8032 209.192C60.4724 209.666 62.599 210.192 65.1836 210.772C66.3678 211.035 67.6601 211.351 69.0599 211.72C70.5139 212.089 71.9675 212.563 73.4211 213.142C74.8748 213.721 76.3018 214.459 77.7016 215.354C79.1013 216.25 80.3397 217.356 81.4165 218.673C82.5471 219.989 83.4356 221.543 84.082 223.334C84.7279 225.125 85.0509 227.206 85.0509 229.576C85.0509 231.999 84.5663 234.264 83.5973 236.371C82.6819 238.478 81.1204 240.321 78.913 241.901C76.7056 243.481 73.798 244.746 70.1909 245.694C66.5834 246.589 62.1147 247.037 56.7841 247.037C55.3843 247.037 53.7151 246.958 51.7768 246.8C49.8924 246.642 47.8467 246.379 45.639 246.01C43.4854 245.641 41.278 245.167 39.0164 244.588C36.7551 244.008 34.6285 243.271 32.6364 242.376L36.8359 228.707C39.3667 229.497 41.7893 230.129 44.1045 230.603C46.4736 231.024 48.6274 231.341 50.5654 231.551C52.5576 231.762 54.2806 231.894 55.7343 231.946C57.1879 231.999 58.2916 232.025 59.0454 232.025C60.7685 232.025 61.9261 231.788 62.5181 231.314C63.1645 230.84 63.4875 230.261 63.4875 229.576C63.4875 228.259 61.9261 227.258 58.8032 226.574C55.5726 225.784 52.5037 224.994 49.5964 224.203C46.6891 223.413 44.1314 222.386 41.924 221.122C39.7702 219.858 38.0474 218.225 36.7551 216.223C35.4631 214.222 34.8168 211.588 34.8168 208.323C34.8168 205.794 35.2206 203.424 36.0283 201.212C36.8898 198.947 38.3165 196.972 40.3087 195.286C42.3009 193.601 44.9121 192.284 48.1428 191.336C51.4269 190.335 55.4652 189.834 60.2569 189.834Z" fill="#A65CF0"/>
<path d="M92.568 245.931C92.6219 239.347 92.6219 232.789 92.568 226.257C92.5141 219.726 92.5141 213.169 92.568 206.584H112.274C112.22 213.169 112.22 219.726 112.274 226.257C112.328 232.789 112.328 239.347 112.274 245.931H92.568ZM113.082 194.97C113.082 197.551 112.247 199.684 110.578 201.37C108.909 203.055 106.163 203.898 102.34 203.898C100.456 203.898 98.8406 203.687 97.4948 203.266C96.1486 202.792 95.0449 202.16 94.1833 201.37C93.3757 200.58 92.7836 199.632 92.4067 198.525C92.0298 197.419 91.8412 196.234 91.8412 194.97C91.8412 192.284 92.6489 190.124 94.2642 188.491C95.8795 186.806 98.5715 185.963 102.34 185.963C106.217 185.963 108.963 186.806 110.578 188.491C112.247 190.124 113.082 192.284 113.082 194.97Z" fill="#A65CF0"/>
<path d="M142.727 194.417V206.584H153.549V218.436H142.727V227.364C142.727 228.575 142.808 229.55 142.969 230.287C143.185 231.024 143.481 231.578 143.858 231.946C144.288 232.315 144.827 232.552 145.473 232.657C146.119 232.763 146.9 232.815 147.815 232.815C148.192 232.815 148.946 232.763 150.076 232.657C151.207 232.552 152.445 232.394 153.791 232.183L155.891 244.588C154.814 245.009 153.657 245.378 152.418 245.694C151.234 245.957 150.022 246.194 148.784 246.405C147.6 246.616 146.415 246.747 145.231 246.8C144.1 246.905 143.104 246.958 142.242 246.958C137.827 246.958 134.355 246.458 131.824 245.457C129.294 244.456 127.382 243.218 126.09 241.743C124.852 240.216 124.071 238.583 123.748 236.845C123.425 235.107 123.263 233.5 123.263 232.025V218.436H117.933V207.927L124.717 205.952C125.417 204.214 126.117 202.45 126.817 200.659C127.517 198.868 128.19 197.103 128.836 195.365L142.727 194.417Z" fill="#A65CF0"/>
<path d="M161.413 245.931V191.178H187.015C192.614 191.178 197.218 191.915 200.825 193.39C204.486 194.812 207.367 196.761 209.467 199.236C211.567 201.712 213.02 204.609 213.828 207.927C214.689 211.246 215.12 214.749 215.12 218.436C215.12 222.017 214.636 225.467 213.667 228.786C212.697 232.104 211.109 235.028 208.901 237.556C206.694 240.084 203.786 242.112 200.179 243.64C196.626 245.167 192.238 245.931 187.015 245.931H161.413ZM181.765 204.451V232.499H185.561C187.284 232.499 188.684 232.131 189.761 231.393C190.892 230.603 191.753 229.576 192.345 228.312C192.991 226.995 193.422 225.494 193.638 223.808C193.907 222.123 194.041 220.358 194.041 218.515C194.041 216.619 193.907 214.828 193.638 213.142C193.368 211.404 192.884 209.903 192.184 208.639C191.538 207.374 190.622 206.374 189.438 205.636C188.253 204.846 186.746 204.451 184.915 204.451H181.765Z" fill="#A65CF0"/>
<path d="M269.203 226.178C269.203 229.234 268.746 232.025 267.828 234.553C266.913 237.082 265.459 239.268 263.467 241.111C261.531 242.902 259.028 244.298 255.957 245.299C252.887 246.299 249.175 246.8 244.811 246.8C240.396 246.8 236.656 246.299 233.586 245.299C230.519 244.298 228.012 242.902 226.076 241.111C224.137 239.268 222.712 237.082 221.793 234.553C220.932 232.025 220.503 229.234 220.503 226.178C220.503 223.176 220.932 220.411 221.793 217.883C222.712 215.354 224.137 213.195 226.076 211.404C228.069 209.613 230.597 208.217 233.667 207.216C236.738 206.215 240.45 205.715 244.811 205.715C249.175 205.715 252.887 206.215 255.957 207.216C259.081 208.217 261.612 209.613 263.548 211.404C265.488 213.195 266.913 215.354 267.828 217.883C268.746 220.411 269.203 223.176 269.203 226.178ZM249.012 226.178C249.012 223.598 248.714 221.728 248.122 220.569C247.53 219.358 246.427 218.752 244.811 218.752C243.197 218.752 242.095 219.437 241.503 220.806C240.907 222.176 240.613 223.966 240.613 226.178C240.613 228.97 240.907 230.972 241.503 232.183C242.095 233.395 243.197 234.001 244.811 234.001C246.427 234.001 247.53 233.395 248.122 232.183C248.714 230.972 249.012 228.97 249.012 226.178Z" fill="#A65CF0"/>
<path d="M325.048 232.341L326.42 221.043L329.004 206.663H347.902C346.448 213.3 344.913 219.858 343.3 226.336C341.736 232.815 340.201 239.347 338.694 245.931H314.791L311.961 231.472L310.589 220.648H309.944L308.732 231.393L306.065 245.931H282.321C280.761 239.347 279.145 232.842 277.478 226.416C275.808 219.989 274.22 213.405 272.713 206.663H292.015L294.599 221.359L295.971 232.657H296.457L298.152 221.28L301.222 206.663H319.797L322.786 221.122L324.48 232.341H325.048Z" fill="#A65CF0"/>
<path d="M372.245 210.772C374.666 208.981 377.17 207.664 379.754 206.822C382.392 205.979 384.682 205.557 386.618 205.557C391.571 205.557 395.099 206.822 397.198 209.35C399.3 211.825 400.35 215.512 400.35 220.411V245.931H380.563V224.125C380.563 222.597 380.265 221.543 379.673 220.964C379.134 220.385 378.247 220.095 377.01 220.095C376.524 220.095 375.904 220.2 375.152 220.411C374.397 220.622 373.642 220.99 372.89 221.517V245.931H353.021C353.075 239.347 353.075 232.789 353.021 226.257C352.968 219.674 352.968 213.09 353.021 206.505H371.273L371.678 210.535L372.245 210.772Z" fill="#A65CF0"/>
<path d="M456.247 209.271C456.247 211.746 455.79 214.09 454.875 216.302C454.014 218.462 452.695 220.358 450.919 221.991C449.142 223.624 446.962 224.915 444.377 225.863C441.793 226.811 438.804 227.285 435.411 227.285H428.465V245.931H408.114V191.178H434.12C438.318 191.178 441.846 191.652 444.7 192.6C447.554 193.548 449.816 194.838 451.482 196.471C453.205 198.104 454.418 200.027 455.116 202.239C455.871 204.451 456.247 206.795 456.247 209.271ZM428.465 204.451V214.485H430.972C432.479 214.485 433.634 214.064 434.443 213.221C435.304 212.378 435.733 211.193 435.733 209.666C435.733 207.664 435.251 206.294 434.28 205.557C433.312 204.82 432.046 204.451 430.486 204.451H428.465Z" fill="#A65CF0"/>
<path d="M461.02 245.931C461.073 236.344 461.044 226.811 460.938 217.33C460.885 207.849 460.91 198.315 461.02 188.728H480.644C480.697 198.315 480.725 207.849 480.725 217.33C480.725 226.811 480.725 236.344 480.725 245.931H461.02Z" fill="#A65CF0"/>
<path d="M508.727 205.478C511.638 205.478 514.623 205.768 517.694 206.347C520.764 206.874 523.671 207.743 526.415 208.954L523.022 219.858C520.601 219.068 518.257 218.515 515.999 218.199C513.737 217.883 511.716 217.725 509.94 217.725C509.131 217.725 508.568 217.83 508.245 218.04C507.922 218.251 507.759 218.594 507.759 219.068C507.759 219.331 508.217 219.595 509.131 219.858C510.05 220.069 511.152 220.306 512.443 220.569C514.06 220.832 515.836 221.227 517.775 221.754C519.711 222.228 521.516 222.966 523.186 223.966C524.855 224.967 526.228 226.31 527.305 227.996C528.436 229.629 529 231.735 529 234.317C529 236.055 528.624 237.688 527.869 239.215C527.114 240.743 525.823 242.086 523.994 243.245C522.218 244.351 519.846 245.246 516.885 245.931C513.925 246.563 510.262 246.879 505.901 246.879C504.77 246.879 503.427 246.827 501.863 246.721C500.356 246.616 498.715 246.431 496.939 246.168C495.162 245.905 493.329 245.562 491.447 245.141C489.614 244.667 487.866 244.088 486.196 243.403L489.426 232.025C493.897 233.29 497.396 234.053 499.927 234.317C502.455 234.527 504.313 234.633 505.497 234.633C506.412 234.633 507.167 234.58 507.759 234.474C508.351 234.317 508.649 234.027 508.649 233.605C508.649 233.237 508.486 232.947 508.163 232.736C507.841 232.526 507.437 232.368 506.951 232.262C506.469 232.104 505.93 231.973 505.338 231.867C504.799 231.762 504.288 231.656 503.803 231.551C501.81 231.077 499.846 230.577 497.906 230.05C496.024 229.523 494.326 228.812 492.819 227.917C491.365 227.021 490.181 225.889 489.266 224.519C488.351 223.097 487.891 221.254 487.891 218.989C487.891 217.145 488.242 215.407 488.944 213.774C489.642 212.141 490.801 210.719 492.415 209.508C494.031 208.243 496.159 207.269 498.796 206.584C501.487 205.847 504.799 205.478 508.727 205.478Z" fill="#A65CF0"/>
<mask id="mask0_235_2213" style="mask-type:luminance" maskUnits="userSpaceOnUse" x="159" y="0" width="230" height="168">
<path d="M159 0H389V167.86H159V0Z" fill="white"/>
</mask>
<g mask="url(#mask0_235_2213)">
<path fill-rule="evenodd" clip-rule="evenodd" d="M192.773 145.801C221.728 145.801 227.184 120.159 227.184 99.6294C230.623 99.6294 257.802 99.6294 270.198 99.6294C337.63 99.6294 337.647 3.5426 272.349 3.5426C254.589 3.5426 243.149 14.3869 240.086 18.1645C203.653 18.1645 199.225 37.3374 199.225 74.5654C199.225 81.7473 199.225 105.094 199.225 108.69C199.225 117.444 195.732 123.122 186.319 123.122C178.282 123.122 174.475 115.955 171.264 105.896C169.59 106.801 157.841 113.202 156.211 114.251C159.766 124.3 163.573 145.801 192.773 145.801ZM233.71 59.9415C244.74 59.9415 245.678 76.6525 232.929 76.6525C222.182 76.6525 222.461 59.9415 233.71 59.9415ZM272.351 110.018C263.028 110.018 235.787 107.985 235.787 107.985V159.503L261.595 159.874L268.048 122.607L349.774 121.06L351.927 161.92L382.037 162.293C382.037 162.293 386.336 82.2633 386.336 66.2078C386.336 36.428 373.108 19.5729 343.323 18.1645C335.859 17.8119 326.095 16.4098 319.665 16.0757C347.695 50.4273 325.392 110.018 272.351 110.018ZM323.968 130.907L326.117 161.178L343.323 161.551L341.172 130.907H323.968ZM270.198 160.249L287.404 160.621L291.703 130.907H276.648L270.198 160.249Z" fill="#FF862F"/>
</g>
</svg>
