<svg width="590" height="173" viewBox="0 0 590 173" fill="none" xmlns="http://www.w3.org/2000/svg">
<g clip-path="url(#clip0_212_2036)">
<mask id="mask0_212_2036" style="mask-type:luminance" maskUnits="userSpaceOnUse" x="0" y="0" width="590" height="173">
<path d="M0 0H590V173H0V0Z" fill="white"/>
</mask>
<g mask="url(#mask0_212_2036)">
<path d="M177.687 74.1356C169.889 65.8418 159.036 61.7 145.14 61.7C137.604 61.6128 130.189 63.5963 123.702 67.4344C117.388 71.1437 112.111 76.3871 108.362 82.6788C105.049 76.1823 99.9256 70.785 93.6116 67.1393C86.9456 63.4223 79.4116 61.5451 71.7816 61.7C64.8594 61.5295 58.0128 63.1713 51.92 66.4626C46.4524 69.5045 41.9186 73.982 38.8078 79.4121V62.6718H0V171.575H38.7416V113.758C38.5716 111.193 38.9289 108.62 39.7914 106.198C40.6539 103.777 42.0035 101.558 43.7566 99.6786C45.5775 97.9791 47.7239 96.6612 50.0788 95.8115C52.4286 94.9618 54.926 94.5903 57.4284 94.7226C59.8313 94.6149 62.2315 94.9886 64.488 95.8217C66.7412 96.6562 68.8011 97.9333 70.5406 99.5768C72.2502 101.408 73.5633 103.572 74.3974 105.934C75.2315 108.297 75.5687 110.806 75.3878 113.305V171.575H114.068V113.758C113.898 111.193 114.255 108.62 115.118 106.198C115.98 103.777 117.33 101.558 119.083 99.6786C120.906 97.9748 123.055 96.6592 125.4 95.8115C127.75 94.9618 130.253 94.5903 132.75 94.7226C135.156 94.6158 137.556 94.9872 139.81 95.8217C142.063 96.6562 144.123 97.9333 145.862 99.5768C147.585 101.401 148.912 103.563 149.759 105.926C150.605 108.288 150.953 110.801 150.781 113.305V171.575H189.39V108.318C189.39 93.8169 185.484 82.4193 177.687 74.1356ZM291.724 67.9789C300.312 72.3239 307.452 79.0736 312.273 87.4057C317.395 96.4231 319.979 106.66 319.749 117.029C320.003 127.43 317.418 137.703 312.273 146.745C307.414 155.047 300.284 161.787 291.724 166.172C282.48 170.648 272.342 172.973 262.072 172.97C251.805 172.971 241.671 170.647 232.429 166.172C223.827 161.81 216.659 155.067 211.779 146.745C206.634 137.704 204.049 127.43 204.303 117.029C204.014 106.675 206.54 96.4366 211.612 87.4057C216.462 79.0622 223.638 72.3132 232.262 67.9839C241.544 63.5433 251.702 61.2384 261.991 61.2384C272.279 61.2384 282.437 63.5433 291.719 67.9839L291.724 67.9789ZM248.588 100.162C244.753 104.924 242.856 110.959 243.278 117.06C242.834 123.224 244.73 129.33 248.588 134.156C250.246 136.034 252.306 137.53 254.616 138.532C256.93 139.54 259.432 140.033 261.96 139.982C264.446 140.017 266.91 139.504 269.176 138.48C271.442 137.455 273.455 135.945 275.072 134.055C278.9 129.251 280.794 123.189 280.382 117.06C280.804 110.959 278.907 104.924 275.072 100.162C273.445 98.2998 271.432 96.8152 269.172 95.8115C266.903 94.8048 264.442 94.3014 261.96 94.3359C259.436 94.2799 256.93 94.7729 254.616 95.781C252.31 96.7805 250.253 98.2794 248.588 100.162ZM373.862 62.6718V171.575H335.12V62.6718H373.862ZM450.368 67.5311C456.653 63.7197 463.862 61.7031 471.212 61.7V102.492H460.002C451.264 102.492 444.774 104.141 440.532 107.443C436.295 110.751 434.108 116.475 433.976 124.636V171.575H395.3V62.6718H434.042V83.0706C438.237 76.7206 443.82 71.407 450.368 67.5311ZM590 115.116C590.211 105.213 587.802 95.4308 583.017 86.7595C578.445 78.6904 571.609 72.1396 563.353 67.9178C554.276 63.5337 544.325 61.2567 534.245 61.2567C524.165 61.2567 514.215 63.5337 505.137 67.9178C496.738 72.2789 489.825 79.0392 485.275 87.3396C480.381 96.4637 477.941 106.703 478.195 117.055C477.949 127.438 480.387 137.709 485.275 146.872C487.817 151.389 491.083 155.458 494.944 158.916C498.048 161.832 501.533 164.314 505.304 166.294C514.269 170.863 524.216 173.165 534.276 173C536.574 173 538.873 172.878 541.162 172.644C547.419 172.016 553.531 170.365 559.254 167.759C566.588 164.47 573.053 159.513 578.134 153.283C583.039 147.352 586.376 140.284 587.838 132.727H546.93C546.071 135.624 544.273 138.154 541.818 139.916C539.045 141.812 535.735 142.764 532.378 142.633C522.15 142.633 516.687 136.482 515.986 124.184H589.018C589.65 121.202 589.979 118.164 590 115.116ZM516.25 108.125C516.412 103.349 518.422 98.8233 521.855 95.5011C525.316 92.5745 529.747 91.0498 534.276 91.227C538.611 91.0876 542.834 92.6174 546.076 95.5011C547.728 97.1326 548.997 99.1111 549.791 101.293C550.586 103.476 550.885 105.808 550.668 108.12L516.25 108.125Z" fill="#150C26"/>
<path d="M334.988 5.53601C339.577 1.72463 345.416 -0.247982 351.376 6.29716e-06C357.347 -0.321578 363.214 1.65978 367.768 5.53601C369.746 7.29961 371.316 9.47329 372.368 11.9057C373.42 14.3381 373.93 16.9707 373.862 19.6202C373.909 22.1981 373.379 24.7539 372.31 27.0999C371.242 29.4558 369.655 31.542 367.667 33.216C363.082 37.0263 357.231 38.9685 351.279 38.6553C345.335 38.9001 339.507 36.9639 334.891 33.2109C332.885 31.5594 331.275 29.4779 330.181 27.1203C329.095 24.7719 328.554 22.2077 328.599 19.6202C328.543 16.9488 329.087 14.2987 330.191 11.8658C331.302 9.42685 332.941 7.26497 334.988 5.53601ZM210.432 5.53601C215.022 1.72343 220.863 -0.249256 226.824 6.29716e-06C232.794 -0.320256 238.659 1.66102 243.212 5.53601C245.196 7.30671 246.773 9.48448 247.825 11.9167C248.878 14.3488 249.382 16.9744 249.306 19.6202C249.354 22.1981 248.823 24.754 247.754 27.0999C246.686 29.4558 245.099 31.542 243.111 33.216C238.526 37.0263 232.675 38.9685 226.723 38.6553C220.779 38.9006 214.951 36.9644 210.335 33.2109C208.329 31.5594 206.719 29.4779 205.625 27.1203C204.538 24.7719 203.998 22.2077 204.043 19.6202C203.987 16.9488 204.531 14.2987 205.635 11.8658C206.746 9.42685 208.384 7.26497 210.432 5.53601Z" fill="#E02D71"/>
</g>
</g>
<defs>
<clipPath id="clip0_212_2036">
<rect width="590" height="173" fill="white"/>
</clipPath>
</defs>
</svg>
