<svg width="204" height="47" viewBox="0 0 204 47" fill="none" xmlns="http://www.w3.org/2000/svg">
<path d="M20.464 46.576C18.8853 46.576 17.7973 45.8293 17.2 44.336L0.752 1.264C1.136 1.09333 1.60533 0.943999 2.16 0.815998C2.71467 0.687997 3.20533 0.623997 3.632 0.623997C4.95467 0.623997 6.064 0.943998 6.96 1.584C7.89867 2.18133 8.58133 3.03467 9.008 4.144L20.144 35.184L18.864 38.704L19.44 38.896L31.92 4.144C32.3467 3.03467 33.0293 2.18133 33.968 1.584C34.9067 0.943998 36.0373 0.623997 37.36 0.623997C38.2133 0.623997 39.1947 0.83733 40.304 1.264L23.856 44.336C23.6 45.0613 23.1733 45.616 22.576 46C21.9787 46.384 21.2747 46.576 20.464 46.576ZM59.039 7.216H43.487C43.487 3.20533 45.343 1.2 49.055 1.2H81.375C81.375 3.16266 80.9057 4.656 79.967 5.68C79.0283 6.704 77.6417 7.216 75.807 7.216H65.887V41.136C65.887 42.8853 65.2897 44.2293 64.095 45.168C62.943 46.1067 61.2577 46.576 59.039 46.576V7.216ZM101.064 46.576C97.5222 46.576 94.3222 45.8933 91.4635 44.528C88.6475 43.12 86.4288 41.2 84.8075 38.768C83.2288 36.336 82.4395 33.648 82.4395 30.704V16.368C82.4395 13.424 83.2288 10.7573 84.8075 8.368C86.4288 5.97866 88.6475 4.10133 91.4635 2.736C94.3222 1.328 97.5222 0.623997 101.064 0.623997C104.605 0.623997 107.784 1.328 110.6 2.736C113.458 4.10133 115.698 5.97866 117.319 8.368C118.941 10.7573 119.752 13.424 119.752 16.368V30.704C119.752 33.648 118.941 36.336 117.319 38.768C115.698 41.2 113.458 43.12 110.6 44.528C107.784 45.8933 104.605 46.576 101.064 46.576ZM101.064 40.56C104.776 40.56 107.677 39.664 109.768 37.872C111.901 36.08 112.968 33.6693 112.968 30.64V16.496C112.968 13.4667 111.901 11.056 109.768 9.264C107.677 7.472 104.776 6.576 101.064 6.576C97.3515 6.576 94.4288 7.472 92.2955 9.264C90.2048 11.056 89.1595 13.4667 89.1595 16.496V30.64C89.1595 33.6693 90.2048 36.08 92.2955 37.872C94.4288 39.664 97.3515 40.56 101.064 40.56ZM126.661 4.4C126.661 3.46133 126.981 2.69333 127.622 2.096C128.304 1.49866 129.158 1.2 130.182 1.2H148.55C151.451 1.2 154.011 1.79733 156.229 2.992C158.491 4.144 160.24 5.808 161.478 7.984C162.715 10.1173 163.334 12.592 163.334 15.408C163.334 18.2667 162.715 20.784 161.478 22.96C160.283 25.136 158.555 26.8213 156.294 28.016C154.075 29.168 151.494 29.744 148.55 29.744H133.574V41.136C133.574 42.8853 132.976 44.2293 131.782 45.168C130.587 46.1067 128.88 46.576 126.661 46.576V4.4ZM148.55 23.728C151.024 23.728 152.966 23.0027 154.374 21.552C155.782 20.0587 156.486 18.0107 156.486 15.408C156.486 12.8907 155.76 10.9067 154.31 9.456C152.902 7.96267 150.982 7.216 148.55 7.216H133.574V23.728H148.55ZM186.032 46.576C182.704 46.576 179.717 46.064 177.072 45.04C174.469 43.9733 172.421 42.5227 170.928 40.688C169.477 38.8533 168.752 36.7627 168.752 34.416C168.752 32.6667 169.285 31.408 170.352 30.64C171.419 29.8293 173.104 29.4453 175.408 29.488C175.323 30.5973 175.28 31.4293 175.28 31.984C175.28 34.7573 176.197 36.8693 178.032 38.32C179.867 39.7707 182.533 40.496 186.032 40.496C193.115 40.496 196.656 38.128 196.656 33.392C196.656 31.0027 195.824 29.1893 194.16 27.952C192.539 26.7147 190.149 26.096 186.992 26.096H184.816C183.963 26.096 183.259 25.8187 182.704 25.264C182.149 24.7093 181.872 24.0053 181.872 23.152C181.872 22.256 182.149 21.552 182.704 21.04C183.259 20.4853 183.963 20.208 184.816 20.208H187.056C189.659 20.208 191.685 19.5893 193.136 18.352C194.629 17.1147 195.376 15.4293 195.376 13.296C195.376 11.12 194.608 9.47733 193.072 8.368C191.536 7.25867 189.296 6.704 186.352 6.704C183.152 6.704 180.699 7.25867 178.992 8.368C177.285 9.47733 176.432 11.0773 176.432 13.168C176.432 14.0213 176.517 14.8533 176.688 15.664C174.683 15.7493 173.04 15.3867 171.76 14.576C170.523 13.7227 169.904 12.5707 169.904 11.12C169.904 9.11467 170.608 7.32267 172.016 5.744C173.424 4.12266 175.365 2.864 177.84 1.968C180.357 1.072 183.195 0.623997 186.352 0.623997C189.552 0.623997 192.368 1.15733 194.8 2.224C197.232 3.248 199.109 4.72 200.432 6.64C201.755 8.51733 202.416 10.736 202.416 13.296C202.416 17.5627 200.176 20.8267 195.696 23.088C198.512 24.24 200.539 25.6267 201.776 27.248C203.013 28.8693 203.632 30.9173 203.632 33.392C203.632 36.08 202.907 38.4267 201.456 40.432C200.048 42.3947 198 43.9093 195.312 44.976C192.667 46.0427 189.573 46.576 186.032 46.576Z" fill="#FF862F"/>
</svg>
